<?xml version="1.0" encoding="iso-8859-1"?>
<!-- Generator: Adobe Illustrator 19.0.0, SVG Export Plug-In . SVG Version: 6.00 Build 0)  -->
<svg version="1.1" id="Layer_1" xmlns="http://www.w3.org/2000/svg" xmlns:xlink="http://www.w3.org/1999/xlink" x="0px" y="0px"
	 viewBox="0 0 512 512" style="enable-background:new 0 0 512 512;" xml:space="preserve" fill="#ffffff">
<g>
	<g>
		<path d="M331.453,97.011H256c-4.465,0-8.084,3.618-8.084,8.084c0,4.466,3.62,8.084,8.084,8.084h75.453
			c4.465,0,8.084-3.618,8.084-8.084C339.537,100.629,335.917,97.011,331.453,97.011z"/>
	</g>
</g>
<g>
	<g>
		<path d="M331.453,161.684H256c-4.465,0-8.084,3.619-8.084,8.084s3.62,8.084,8.084,8.084h75.453c4.465,0,8.084-3.619,8.084-8.084
			S335.917,161.684,331.453,161.684z"/>
	</g>
</g>
<g>
	<g>
		<path d="M234.442,247.916H61.979c-4.465,0-8.084,3.619-8.084,8.084c0,4.466,3.62,8.084,8.084,8.084h172.463
			c4.465,0,8.084-3.619,8.084-8.084C242.526,251.534,238.907,247.916,234.442,247.916z"/>
	</g>
</g>
<g>
	<g>
		<path d="M331.453,247.916h-53.895c-4.465,0-8.084,3.619-8.084,8.084c0,4.466,3.62,8.084,8.084,8.084h53.895
			c4.465,0,8.084-3.619,8.084-8.084C339.537,251.534,335.917,247.916,331.453,247.916z"/>
	</g>
</g>
<g>
	<g>
		<path d="M105.095,312.589H61.979c-4.465,0-8.084,3.618-8.084,8.084c0,4.466,3.62,8.084,8.084,8.084h43.116
			c4.465,0,8.084-3.618,8.084-8.084C113.179,316.208,109.559,312.589,105.095,312.589z"/>
	</g>
</g>
<g>
	<g>
		<path d="M234.442,312.589H148.21c-4.465,0-8.084,3.618-8.084,8.084c0,4.466,3.62,8.084,8.084,8.084h86.232
			c4.465,0,8.084-3.618,8.084-8.084C242.526,316.208,238.907,312.589,234.442,312.589z"/>
	</g>
</g>
<g>
	<g>
		<path d="M331.453,312.589h-53.895c-4.465,0-8.084,3.618-8.084,8.084c0,4.466,3.62,8.084,8.084,8.084h53.895
			c4.465,0,8.084-3.618,8.084-8.084C339.537,316.208,335.917,312.589,331.453,312.589z"/>
	</g>
</g>
<g>
	<g>
		<path d="M331.453,377.263H61.979c-4.465,0-8.084,3.618-8.084,8.084c0,4.466,3.62,8.084,8.084,8.084h269.474
			c4.465,0,8.084-3.618,8.084-8.084C339.537,380.882,335.917,377.263,331.453,377.263z"/>
	</g>
</g>
<g>
	<g>
		<path d="M191.326,75.453H61.979c-4.465,0-8.084,3.62-8.084,8.084v107.789c0,4.465,3.62,8.084,8.084,8.084h61.416
			c4.465,0,8.084-3.62,8.084-8.084c0-4.465-3.62-8.084-8.084-8.084H70.063V91.621h113.179v91.621H159.04
			c-4.465,0-8.084,3.62-8.084,8.084c0,4.465,3.62,8.084,8.084,8.084h32.286c4.465,0,8.084-3.62,8.084-8.084V83.537
			C199.411,79.072,195.791,75.453,191.326,75.453z"/>
	</g>
</g>
<g>
	<g>
		<path d="M466.618,97.011h-83.966V43.618C382.653,19.567,363.086,0,339.035,0H43.618C19.567,0,0,19.567,0,43.618v395.624
			C0,479.361,32.639,512,72.758,512h366.484C479.361,512,512,479.361,512,439.242v-296.85
			C512,117.369,491.642,97.011,466.618,97.011z M72.758,495.832c-31.204,0-56.589-25.387-56.589-56.589V43.618
			c0-15.136,12.314-27.45,27.45-27.45h295.415c15.137,0,27.451,12.314,27.451,27.45v395.624c0,22.837,10.585,43.241,27.097,56.589
			H72.758z M495.832,439.242c0,31.203-25.385,56.589-56.589,56.589s-56.589-25.387-56.589-56.589V113.179h83.966
			c16.108,0,29.213,13.105,29.213,29.213V439.242z"/>
	</g>
</g>
<g>
</g>
<g>
</g>
<g>
</g>
<g>
</g>
<g>
</g>
<g>
</g>
<g>
</g>
<g>
</g>
<g>
</g>
<g>
</g>
<g>
</g>
<g>
</g>
<g>
</g>
<g>
</g>
<g>
</g>
</svg>
