<?xml version="1.0" encoding="iso-8859-1"?>
<!-- Generator: Adobe Illustrator 19.0.0, SVG Export Plug-In . SVG Version: 6.00 Build 0)  -->
<svg version="1.1" id="Layer_1" xmlns="http://www.w3.org/2000/svg" xmlns:xlink="http://www.w3.org/1999/xlink" x="0px" y="0px"
	 viewBox="0 0 455 455" style="enable-background:new 0 0 455 455;" xml:space="preserve">
<g>
	<circle cx="69.803" cy="299.013" r="34.902"/>
	<path d="M69.803,363.914C31.252,363.914,0,395.167,0,433.718h139.606C139.606,395.167,108.354,363.914,69.803,363.914z"/>
	<circle cx="385.197" cy="299.013" r="34.902"/>
	<path d="M385.197,363.914c-38.551,0-69.803,31.252-69.803,69.803H455C455,395.167,423.748,363.914,385.197,363.914z"/>
	<circle cx="227.5" cy="56.184" r="34.901"/>
	<path d="M227.5,121.085c-38.551,0-69.803,31.252-69.803,69.803h139.606C297.303,152.337,266.051,121.085,227.5,121.085z"/>
	<polygon points="242.5,240.773 212.5,240.773 212.5,308.896 153.504,342.958 168.504,368.939 227.5,334.877 286.496,368.939 
		301.496,342.958 242.5,308.896 	"/>
</g>
<g>
</g>
<g>
</g>
<g>
</g>
<g>
</g>
<g>
</g>
<g>
</g>
<g>
</g>
<g>
</g>
<g>
</g>
<g>
</g>
<g>
</g>
<g>
</g>
<g>
</g>
<g>
</g>
<g>
</g>
</svg>
